<?xml version="1.0" encoding="utf-8"?>
<!-- Generator: Adobe Illustrator 15.0.2, SVG Export Plug-In . SVG Version: 6.00 Build 0)  -->
<!DOCTYPE svg PUBLIC "-//W3C//DTD SVG 1.1//EN" "http://www.w3.org/Graphics/SVG/1.1/DTD/svg11.dtd">
<svg version="1.1" id="Layer_1" xmlns="http://www.w3.org/2000/svg" xmlns:xlink="http://www.w3.org/1999/xlink" x="0px" y="0px"
	 width="295.5px" height="131.459px" viewBox="0 0 295.5 131.459" enable-background="new 0 0 295.5 131.459" xml:space="preserve">
<g>
	<g>
		<g>
			<g>
				<path fill="#FFFFFF" d="M26.243,54.897H15.46v-3.563h1.514v-6.776H15.46v-3.582h10.21c3.046,0,4.929,1.459,4.929,3.582
					c0,1.754-0.979,2.566-2.215,3.139c1.496,0.333,2.714,1.588,2.714,3.231C31.098,52.607,29.677,54.897,26.243,54.897z
					 M23.658,44.558h-1.145v2.308h1.145c0.96,0,1.33-0.499,1.33-1.164C24.987,45.056,24.618,44.558,23.658,44.558z M23.658,49.026
					h-1.145v2.308h1.145c0.96,0,1.33-0.499,1.33-1.163S24.618,49.026,23.658,49.026z"/>
				<path fill="#FFFFFF" d="M45.077,55.248c-2.77,0-3.951-1.44-3.951-3.545c0-2.271-0.757-2.677-1.68-2.677h-0.203v2.308h1.126
					v3.563H32.19v-3.563h1.514v-6.776H32.19v-3.582h10.229c3.028,0,4.912,1.459,4.912,3.582c0,1.846-1.403,2.862-2.88,3.453
					c1.218,0.351,2.179,1.625,2.179,3.342c0,0.314,0.258,0.554,0.572,0.554s0.554-0.24,0.554-0.554v-0.683h1.551v1.551
					C49.305,54.232,47.33,55.248,45.077,55.248z M40.388,44.558h-1.145v2.308h1.145c0.96,0,1.329-0.499,1.329-1.164
					C41.717,45.056,41.348,44.558,40.388,44.558z"/>
				<path fill="#FFFFFF" d="M50.046,54.897v-3.563h1.514v-6.776h-1.514v-3.582h14.863v6.499h-4.32v-2.917H57.1v2.086h2.548v2.585
					H57.1v2.104h3.489v-2.917h4.32v6.48H50.046z"/>
				<path fill="#FFFFFF" d="M73.552,54.897v-3.563h1.126l-0.314-1.071h-2.585l-0.295,1.071h1.126v3.563h-6.591v-3.563h1.219
					l3.766-10.358h5.834l3.767,10.358h1.403v3.563H73.552z M73.072,45.887l-0.683,2.363h1.385L73.072,45.887z"/>
				<path fill="#FFFFFF" d="M91.87,54.897v-3.563h0.941l-1.846-2.345l-1.163,0.794v1.551h1.126v3.563h-8.179v-3.563h1.514v-6.776
					h-1.514v-3.582h8.364v3.582h-1.311v2.936l4.043-2.936h-1.791v-3.582h7.348v3.582h-1.92l-2.382,1.643l4.006,5.133h1.422v3.563
					H91.87z"/>
				<path fill="#FFFFFF" d="M111.997,47.475v-2.917h-3.489v2.29h2.548v2.566h-2.548v1.92h1.514v3.563h-8.567v-3.563h1.514v-6.776
					h-1.514v-3.582h14.863v6.499H111.997z"/>
				<path fill="#FFFFFF" d="M122.93,54.897v-3.563h1.126l-0.314-1.071h-2.585l-0.295,1.071h1.126v3.563h-6.591v-3.563h1.219
					l3.766-10.358h5.834l3.767,10.358h1.403v3.563H122.93z M122.45,45.887l-0.683,2.363h1.385L122.45,45.887z"/>
				<path fill="#FFFFFF" d="M140.103,55.248c-1.403,0-2.936-0.554-3.619-1.477v1.126h-4.209v-5.041h4.136
					c0,1.385,0.979,2.049,2.252,2.049c0.702,0,1.163-0.443,1.163-1.052c0-1.662-7.551-0.369-7.551-5.76
					c0-2.419,2.566-4.468,5.742-4.468c1.403,0,2.566,0.591,3.194,1.477l0.019-1.126h3.822v4.856h-3.767
					c0-1.385-0.923-2.049-2.197-2.049c-0.702,0-1.164,0.443-1.164,1.052c0,1.662,7.552,0.554,7.552,5.945
					C145.476,53.198,143.279,55.248,140.103,55.248z"/>
				<path fill="#FFFFFF" d="M158.162,47.475v-2.917h-1.219v6.776h1.496v3.563h-8.548v-3.563h1.495v-6.776h-1.218v2.917h-3.767
					v-6.499h15.564v6.499H158.162z"/>
			</g>
			<g>
				<path fill="#FFFFFF" d="M84.826,67.264c-1.871,0-2.855-1.017-2.855-2.417c0-1.871,1.619-3.622,3.818-3.622
					c1.871,0,2.845,1.028,2.845,2.429C88.633,65.525,87.014,67.264,84.826,67.264z M85.887,62.417c-0.634,0-1.466,2.779-1.466,3.239
					c0,0.295,0.077,0.427,0.295,0.427c0.646,0,1.477-2.79,1.477-3.25C86.193,62.549,86.117,62.417,85.887,62.417z"/>
				<path fill="#FFFFFF" d="M95.558,61.061c-0.667,0-1.039-0.35-1.039-0.897c0-0.295-0.109-0.438-0.405-0.438
					c-0.263,0-0.569,0.612-0.897,1.674h1.39l-0.492,1.652h-1.357c-0.022,0.055-0.033,0.099-0.043,0.153l-0.777,2.987
					c-0.733,2.844-1.98,3.949-3.982,3.949c-1.335,0-2.309-0.602-2.309-1.444c0-0.657,0.438-1.149,1.062-1.149
					c0.81,0,1.16,0.58,1.16,1.226c0,0.197,0.109,0.317,0.328,0.317c0.405,0,0.656-0.842,1.477-3.949l0.536-2.09
					c0.011,0-1.204,0-1.204,0l0.492-1.652H90.7c0.766-1.98,1.904-2.724,3.61-2.724c1.346,0,2.21,0.722,2.21,1.564
					C96.521,60.667,96.225,61.061,95.558,61.061z"/>
			</g>
			<g>
				<path fill="#FFFFFF" d="M22.458,88.894c-4.043,0-7.312-2.769-7.312-7.311c0-4.985,4.007-7.312,6.222-7.312
					c1.569,0,2.825,0.646,3.453,1.385v-1.034h4.32v6.499h-4.32v-0.517c0-1.644-0.517-2.88-1.846-2.88
					c-1.33,0-1.847,1.237-1.847,2.88v1.957c0,1.643,0.517,2.88,1.847,2.88c1.329,0,1.846-1.237,1.846-2.88v-0.499h4.32
					C29.142,86.438,26.335,88.894,22.458,88.894z"/>
				<path fill="#FFFFFF" d="M39.926,88.543V84.98h1.126v-2.382h-3.194v2.382h1.126v3.563h-8.179V84.98h1.496v-6.776h-1.496v-3.582
					h8.179v3.582h-1.126v2.382h3.194v-2.382h-1.126v-3.582h8.179v3.582h-1.514v6.776h1.514v3.563H39.926z"/>
				<path fill="#FFFFFF" d="M56.472,88.543V84.98h1.126l-0.314-1.071h-2.585l-0.295,1.071h1.126v3.563h-6.591V84.98h1.219
					l3.766-10.358h5.834l3.767,10.358h1.403v3.563H56.472z M55.992,79.534l-0.683,2.363h1.385L55.992,79.534z"/>
				<path fill="#FFFFFF" d="M79.313,88.543V84.98h1.496v-5.317l-3.73,8.881h-2.363l-3.692-8.881v5.317h1.514v3.563h-6.869V84.98
					h1.514v-6.776h-1.514v-3.582h9.306l1.754,4.523l1.735-4.523h9.398v3.582h-1.496v6.776h1.496v3.563H79.313z"/>
				<path fill="#FFFFFF" d="M99.275,83.042h-3.157v1.938h1.495v3.563h-8.548V84.98h1.496v-6.776h-1.496v-3.582h10.21
					c3.046,0,4.911,1.828,4.911,4.21C104.186,81.232,102.321,83.042,99.275,83.042z M97.262,78.204h-1.145v2.308h1.145
					c0.941,0,1.311-0.499,1.311-1.164C98.573,78.703,98.204,78.204,97.262,78.204z"/>
				<path fill="#FFFFFF" d="M105.407,88.543V84.98h1.514v-6.776h-1.514v-3.582h8.567v3.582h-1.514v6.776h1.514v3.563H105.407z"/>
				<path fill="#FFFFFF" d="M122.579,88.894c-4.043,0-7.312-2.769-7.312-7.311s3.268-7.312,7.312-7.312s7.312,2.77,7.312,7.312
					S126.623,88.894,122.579,88.894z M123.908,79.792c0-1.182-0.388-2.068-1.329-2.068c-0.96,0-1.33,0.886-1.33,2.068v3.582
					c0,1.182,0.37,2.068,1.33,2.068c0.941,0,1.329-0.887,1.329-2.068V79.792z"/>
				<path fill="#FFFFFF" d="M146.232,78.204v10.339h-5.17l-4.708-6.776v3.212h1.514v3.563H131V84.98h1.496v-6.776H131v-3.582h6.666
					l4.708,6.776v-3.194h-1.496v-3.582h6.85v3.582H146.232z"/>
				<path fill="#FFFFFF" d="M156.722,88.894c-1.403,0-2.936-0.554-3.619-1.477v1.126h-4.209v-5.041h4.136
					c0,1.385,0.979,2.049,2.252,2.049c0.702,0,1.163-0.443,1.163-1.052c0-1.662-7.551-0.369-7.551-5.76
					c0-2.419,2.566-4.468,5.742-4.468c1.403,0,2.566,0.591,3.194,1.477l0.019-1.126h3.822v4.856h-3.767
					c0-1.385-0.923-2.049-2.197-2.049c-0.702,0-1.164,0.443-1.164,1.052c0,1.662,7.552,0.554,7.552,5.945
					C162.095,86.845,159.897,88.894,156.722,88.894z"/>
			</g>
			<rect x="14.803" y="63.025" fill="#FFFFFF" width="60.99" height="2.187"/>
			<rect x="100.955" y="63.025" fill="#FFFFFF" width="60.99" height="2.187"/>
		</g>
	</g>
	<g>
		<g>
			<g>
				<path fill="#FFFFFF" d="M181.47,42.53h3.812v0.467h-0.202c-0.651,0-0.914,0.276-0.914,0.899v4.75
					c0,0.591,0.205,0.874,0.934,0.874h0.182v0.468h-3.812V49.52h0.165c0.636,0,0.877-0.298,0.877-0.828v-4.796
					c0-0.623-0.215-0.899-0.889-0.899h-0.153V42.53z"/>
				<path fill="#FFFFFF" d="M187.575,48.551c0,0.728,0.228,0.969,1.186,0.969v0.468h-2.903V49.52h0.075
					c0.727,0,0.906-0.262,0.906-0.756V43.26c-0.259-0.18-0.586-0.264-0.956-0.264V42.53h2.469l4.893,5.107v-3.621
					c0-0.859-0.182-1.019-1.139-1.019h-0.12V42.53h3.091v0.467h-0.12c-0.741,0-0.981,0.16-0.981,0.612v6.416h-0.658l-5.743-6.008
					V48.551z"/>
				<path fill="#FFFFFF" d="M200.006,47.78h0.468c0.396,1.188,1.105,1.802,2.049,1.802c0.793,0,1.394-0.504,1.394-1.175
					c0-1.788-3.852-1.73-3.852-4.103c0-1.148,1.007-1.956,2.435-1.956c0.924,0,1.644,0.316,1.822,0.316
					c0.082,0,0.156-0.025,0.268-0.135h0.251l0.223,1.942h-0.474c-0.268-0.969-1.034-1.606-1.958-1.606
					c-0.671,0-1.173,0.358-1.173,0.827c0,1.104,1.99,1.306,3.33,2.65c0.495,0.492,0.686,1.007,0.686,1.587
					c0,1.243-1.131,2.227-2.556,2.227c-0.958,0-1.836-0.386-2.049-0.386c-0.112,0-0.192,0.065-0.253,0.194h-0.312L200.006,47.78z"/>
				<path fill="#FFFFFF" d="M212.142,42.53h3.106v0.467h-0.084c-0.963,0-1.102,0.42-1.102,0.998v2.986
					c0,2.672-1.947,3.176-3.374,3.176c-2.157,0-3.524-0.935-3.524-2.769v-3.575c0-0.599-0.168-0.816-0.841-0.816h-0.205V42.53h3.754
					v0.467h-0.201c-0.506,0-0.853,0.228-0.853,0.816v3.575c0,1.46,1.079,1.963,2.171,1.963c1.569,0,2.349-0.886,2.349-2.203v-2.917
					c0-0.849-0.24-1.234-0.986-1.234h-0.213V42.53z"/>
				<path fill="#FFFFFF" d="M218.33,48.621c0,0.694,0.265,0.899,1.042,0.899h0.361v0.468h-4.08V49.52h0.182
					c0.659,0,0.84-0.144,0.84-0.682v-5.145c0-0.553-0.181-0.696-0.84-0.696h-0.264V42.53c0.468-0.025,1.116-0.097,1.942-0.131
					c0.79-0.036,1.571-0.063,1.907-0.063c2.315,0,3.298,1.116,3.298,2.353c0,1.391-1.177,2.279-3.022,2.279
					c-0.433,0-0.863-0.04-1.367-0.12V48.621z M218.33,46.356c0.251,0.059,0.514,0.083,0.863,0.083c1.113,0,1.737-0.646,1.737-1.821
					c0-1.106-0.647-1.751-1.75-1.751c-0.287,0-0.563,0.027-0.85,0.082V46.356z"/>
				<path fill="#FFFFFF" d="M226.075,48.621c0,0.694,0.265,0.899,1.046,0.899h0.361v0.468h-4.083V49.52h0.181
					c0.661,0,0.842-0.144,0.842-0.682v-5.145c0-0.553-0.181-0.696-0.842-0.696h-0.262V42.53c0.466-0.025,1.115-0.097,1.942-0.131
					c0.791-0.036,1.571-0.063,1.905-0.063c2.315,0,3.298,1.116,3.298,2.353c0,1.391-1.178,2.279-3.024,2.279
					c-0.43,0-0.861-0.04-1.365-0.12V48.621z M226.075,46.356c0.252,0.059,0.517,0.083,0.864,0.083c1.114,0,1.74-0.646,1.74-1.821
					c0-1.106-0.649-1.751-1.753-1.751c-0.286,0-0.561,0.027-0.852,0.082V46.356z"/>
				<path fill="#FFFFFF" d="M236.018,42.304c2.503,0,4.28,1.568,4.28,3.811c0,2.134-1.644,4.042-4.509,4.042
					c-2.761,0-4.367-1.76-4.367-3.777C231.422,44.005,233.338,42.304,236.018,42.304z M236.064,49.64
					c1.663,0,2.442-1.437,2.442-3.089c0-1.933-0.953-3.733-2.779-3.733c-1.521,0-2.516,1.178-2.516,2.988
					C233.211,48.097,234.373,49.64,236.064,49.64z"/>
				<path fill="#FFFFFF" d="M243.929,48.646c0,0.612,0.265,0.874,0.95,0.874h0.36v0.468h-4.195V49.52h0.189
					c0.731,0,1.042-0.177,1.042-0.874v-4.737c0-0.574-0.157-0.912-0.957-0.912h-0.253V42.53c0.598-0.034,1.053-0.061,1.547-0.097
					c0.671-0.049,1.532-0.084,1.967-0.084c1.766,0,2.723,0.228,3.323,0.829c0.394,0.397,0.573,0.851,0.573,1.368
					c0,0.914-0.659,1.629-1.772,1.931c0.789,0.661,1.204,1.606,2.061,2.457c0.49,0.492,0.829,0.637,1.583,0.707v0.468
					c-0.264,0.013-0.386,0.013-0.743,0.013c-1.488,0-2.098-0.217-2.664-0.778c-0.596-0.602-1.29-1.857-2.061-2.52h-0.95V48.646z
					 M243.929,46.316h0.471c1.449,0,2.291-0.439,2.291-1.724c0-1.271-0.974-1.726-2.136-1.726h-0.626V46.316z"/>
				<path fill="#FFFFFF" d="M254.46,48.621c0,0.625,0.19,0.899,1.042,0.899h0.29v0.468h-4.322V49.52h0.414
					c0.655,0,0.918-0.262,0.918-0.899v-5.464h-1.415c-0.923,0-1.063,0.142-1.292,1.412h-0.493l0.215-2.243h0.386
					c0.095,0.084,0.152,0.144,0.224,0.171c0.084,0.023,0.184,0.034,0.35,0.034h5.704c0.326,0,0.386-0.025,0.577-0.205h0.385
					l0.215,2.243h-0.493c-0.225-1.258-0.371-1.412-1.296-1.412h-1.411V48.621z"/>
				<path fill="#FFFFFF" d="M267.216,42.304c2.505,0,4.281,1.568,4.281,3.811c0,2.134-1.642,4.042-4.506,4.042
					c-2.761,0-4.367-1.76-4.367-3.777C262.624,44.005,264.542,42.304,267.216,42.304z M267.264,49.64
					c1.664,0,2.448-1.437,2.448-3.089c0-1.933-0.96-3.733-2.787-3.733c-1.518,0-2.513,1.178-2.513,2.988
					C264.413,48.097,265.576,49.64,267.264,49.64z"/>
				<path fill="#FFFFFF" d="M275.129,45.885h1.666c0.839,0,1.045-0.192,1.045-0.874h0.48v2.385h-0.48
					c0-0.574-0.191-0.846-0.829-0.846h-1.882v1.929c0,0.863,0.155,1.041,0.806,1.041h0.226v0.468h-3.585V49.52h0.192
					c0.515,0,0.707-0.169,0.707-0.682V43.98c0-0.766-0.215-0.994-0.742-0.994h-0.157V42.53h6.057v1.69h-0.432
					c-0.049-0.787-0.215-1.032-0.758-1.032h-2.314V45.885z"/>
			</g>
			<g>
				<g>
					<path fill-rule="evenodd" clip-rule="evenodd" fill="#FFFFFF" d="M185.386,80.087c0,1.589,0,4.362,2.22,4.362
						c1.699,0,2.292-1.585,2.292-2.737c0-5.024-9.344-6.173-9.344-14.523c0-4.237,2.296-7.682,6.65-7.682
						c4.631,0,6.411,3.526,6.531,8.589h-4.59c0-1.579,0-4.231-2.061-4.231c-1.227,0-1.939,1.026-1.939,2.575
						c0,4.782,9.346,6.405,9.346,14.604c0,4.307-2.459,7.753-7.09,7.753c-5.497,0-6.609-4.824-6.609-8.709H185.386z"/>
					<g>
						<rect x="195.834" y="60.062" fill-rule="evenodd" clip-rule="evenodd" fill="#FFFFFF" width="4.593" height="4.596"/>
						<rect x="195.834" y="68.377" fill-rule="evenodd" clip-rule="evenodd" fill="#FFFFFF" width="4.593" height="19.869"/>
					</g>
					<path fill-rule="evenodd" clip-rule="evenodd" fill="#FFFFFF" d="M209.766,75.62c-0.08-3.09-0.355-4.236-1.342-4.236
						c-1.032,0-1.27,1.19-1.27,7.439c0,4.987,0.395,6.177,1.465,6.177c1.384,0,1.465-2.296,1.74-4.356l3.524,0.116
						c-0.078,3.689-0.833,7.722-5.506,7.802c-3.6,0-6.369-2.727-6.369-10.256c0-7.517,2.769-10.243,6.369-10.243
						c4.432,0,5.188,3.478,5.506,7.437L209.766,75.62z"/>
					<polygon fill-rule="evenodd" clip-rule="evenodd" fill="#FFFFFF" points="215.427,60.062 220.022,60.062 220.022,75.306 
						220.099,75.306 223.62,68.377 227.423,68.377 224.255,74.39 227.975,88.246 223.379,88.246 221.128,79.302 221.085,79.302 
						220.022,81.476 220.022,88.246 215.427,88.246 					"/>
					<polygon fill-rule="evenodd" clip-rule="evenodd" fill="#FFFFFF" points="229.834,60.062 234.981,60.062 234.981,71.859 
						235.058,71.859 239.333,60.062 243.926,60.062 240.087,69.525 244.717,88.246 239.77,88.246 236.918,75.62 236.84,75.62 
						234.981,80.054 234.981,88.246 229.834,88.246 					"/>
					<g>
						<rect x="246.023" y="60.062" fill-rule="evenodd" clip-rule="evenodd" fill="#FFFFFF" width="4.589" height="4.596"/>
						<rect x="246.023" y="68.377" fill-rule="evenodd" clip-rule="evenodd" fill="#FFFFFF" width="4.589" height="19.869"/>
					</g>
					<g>
						<path fill-rule="evenodd" clip-rule="evenodd" fill="#FFFFFF" d="M260.475,60.062v9.42h-0.083
							c-0.552-0.753-1.542-1.42-2.89-1.42c-3.362,0-4.908,3.638-4.908,10.208c0,6.491,1.186,10.292,4.513,10.292
							c1.824,0,2.574-0.869,3.481-1.901h0.081v1.585h4.392V60.062H260.475z M260.475,84.602c-0.241,0.361-0.717,0.635-1.388,0.635
							c-1.351,0-1.585-0.91-1.585-7.008c0-6.251,0.359-7.078,1.7-7.078c0.594,0,1.073,0.272,1.273,0.626V84.602z"/>
					</g>
					<path fill-rule="evenodd" clip-rule="evenodd" fill="#FFFFFF" d="M274.247,73.917c-0.159-1.226-0.435-2.533-2.021-2.533
						c-0.869,0-1.386,0.832-1.386,1.703c0,3.244,7.444,3.562,7.444,9.617c0,3.444-2.294,5.858-5.857,5.858
						c-3.762,0-5.307-2.256-5.703-5.778l3.604-0.557c0.315,2.138,0.793,3.009,2.298,3.009c0.944,0,1.537-0.709,1.537-1.621
						c0-3.127-7.119-3.326-7.119-10.053c0-3.17,2.252-5.5,5.46-5.5c3.203,0,4.786,2.33,5.068,5.297L274.247,73.917z"/>
					<g>
						<path fill="#FFFFFF" d="M274.762,64.678c-1.165,0-2.11-0.95-2.11-2.11c0-1.173,0.933-2.117,2.11-2.117
							c1.171,0,2.112,0.943,2.112,2.117C276.874,63.728,275.925,64.678,274.762,64.678z M274.762,60.734
							c-1.015,0-1.834,0.818-1.834,1.833s0.819,1.84,1.834,1.84c1.013,0,1.834-0.825,1.834-1.84
							C276.596,61.542,275.775,60.734,274.762,60.734z M274.804,61.466c0.527,0,0.802,0.211,0.802,0.625
							c0,0.264-0.116,0.441-0.367,0.561l0.433,1.004h-0.521l-0.325-0.903h-0.299v0.903h-0.474v-2.19H274.804z M274.526,62.441h0.256
							c0.219,0,0.346-0.129,0.346-0.35c0-0.201-0.115-0.306-0.346-0.306h-0.256V62.441z"/>
					</g>
				</g>
			</g>
		</g>
	</g>
</g>
</svg>
